<svg width="1920" height="1163" viewBox="0 0 1920 1163" fill="none" xmlns="http://www.w3.org/2000/svg">
<path opacity="0.8" d="M0 0H1920V1066.5C1493.5 1278.5 1342.28 1069.86 973 1096C780.668 1109.62 676.141 1152.33 483.5 1160.5C294.665 1168.51 0 1139 0 1139V0Z" fill="#FFE66D" fill-opacity="0.5"/>
<path d="M483.692 586L514.092 585.996C514.469 585.996 514.776 585.703 514.776 585.34V577.144V565.296V556.454C514.776 554.546 515.937 553 518.046 553H486.82C484.71 553 483 554.546 483 556.454V565.296V577.146V585.342C483.002 585.705 483.31 586 483.692 586Z" fill="#FFEB88"/>
<path d="M510.101 563.811H487.502C487.259 563.811 487.061 563.624 487.061 563.392C487.061 563.161 487.259 562.973 487.502 562.973H510.101C510.344 562.973 510.542 563.161 510.542 563.392C510.542 563.624 510.344 563.811 510.101 563.811Z" fill="#FFB30B"/>
<path d="M506.498 561.016H491.106C490.863 561.016 490.666 560.828 490.666 560.596C490.666 560.365 490.863 560.177 491.106 560.177H506.498C506.741 560.177 506.939 560.365 506.939 560.596C506.939 560.828 506.741 561.016 506.498 561.016Z" fill="#FFB30B"/>
<path d="M510.101 566.158H487.502C487.259 566.158 487.061 565.971 487.061 565.739C487.061 565.508 487.259 565.32 487.502 565.32H510.101C510.344 565.32 510.542 565.508 510.542 565.739C510.542 565.971 510.344 566.158 510.101 566.158Z" fill="#FFB30B"/>
<path d="M510.101 568.505H487.502C487.259 568.505 487.061 568.318 487.061 568.086C487.061 567.855 487.259 567.667 487.502 567.667H510.101C510.344 567.667 510.542 567.855 510.542 568.086C510.542 568.318 510.344 568.505 510.101 568.505Z" fill="#FFB30B"/>
<path d="M510.101 570.852H487.502C487.259 570.852 487.061 570.664 487.061 570.433C487.061 570.202 487.259 570.014 487.502 570.014H510.101C510.344 570.014 510.542 570.202 510.542 570.433C510.542 570.664 510.344 570.852 510.101 570.852Z" fill="#FFB30B"/>
<path d="M510.101 573.199H487.502C487.259 573.199 487.061 573.011 487.061 572.78C487.061 572.549 487.259 572.361 487.502 572.361H510.101C510.344 572.361 510.542 572.549 510.542 572.78C510.542 573.011 510.344 573.199 510.101 573.199Z" fill="#FFB30B"/>
<path d="M510.101 575.546H487.502C487.259 575.546 487.061 575.359 487.061 575.127C487.061 574.896 487.259 574.708 487.502 574.708H510.101C510.344 574.708 510.542 574.896 510.542 575.127C510.542 575.359 510.344 575.546 510.101 575.546Z" fill="#FFB30B"/>
<path d="M510.101 577.893H487.502C487.259 577.893 487.061 577.705 487.061 577.474C487.061 577.243 487.259 577.055 487.502 577.055H510.101C510.344 577.055 510.542 577.243 510.542 577.474C510.542 577.705 510.344 577.893 510.101 577.893Z" fill="#FFB30B"/>
<path d="M494.688 580.242H487.502C487.259 580.242 487.061 580.054 487.061 579.823C487.061 579.592 487.259 579.404 487.502 579.404H494.688C494.931 579.404 495.129 579.592 495.129 579.823C495.131 580.054 494.933 580.242 494.688 580.242Z" fill="#FFB30B"/>
<path d="M1533.69 725L1564.09 724.996C1564.47 724.996 1564.78 724.703 1564.78 724.34V716.144V704.296V695.454C1564.78 693.546 1565.94 692 1568.05 692H1536.82C1534.71 692 1533 693.546 1533 695.454V704.296V716.146V724.342C1533 724.705 1533.31 725 1533.69 725Z" fill="#FFEB88"/>
<path d="M1560.1 702.811H1537.5C1537.26 702.811 1537.06 702.624 1537.06 702.392C1537.06 702.161 1537.26 701.973 1537.5 701.973H1560.1C1560.34 701.973 1560.54 702.161 1560.54 702.392C1560.54 702.624 1560.34 702.811 1560.1 702.811Z" fill="#FFB30B"/>
<path d="M1556.5 700.016H1541.11C1540.86 700.016 1540.67 699.828 1540.67 699.596C1540.67 699.365 1540.86 699.177 1541.11 699.177H1556.5C1556.74 699.177 1556.94 699.365 1556.94 699.596C1556.94 699.828 1556.74 700.016 1556.5 700.016Z" fill="#FFB30B"/>
<path d="M1560.1 705.158H1537.5C1537.26 705.158 1537.06 704.971 1537.06 704.739C1537.06 704.508 1537.26 704.32 1537.5 704.32H1560.1C1560.34 704.32 1560.54 704.508 1560.54 704.739C1560.54 704.971 1560.34 705.158 1560.1 705.158Z" fill="#FFB30B"/>
<path d="M1560.1 707.505H1537.5C1537.26 707.505 1537.06 707.318 1537.06 707.086C1537.06 706.855 1537.26 706.667 1537.5 706.667H1560.1C1560.34 706.667 1560.54 706.855 1560.54 707.086C1560.54 707.318 1560.34 707.505 1560.1 707.505Z" fill="#FFB30B"/>
<path d="M1560.1 709.852H1537.5C1537.26 709.852 1537.06 709.664 1537.06 709.433C1537.06 709.202 1537.26 709.014 1537.5 709.014H1560.1C1560.34 709.014 1560.54 709.202 1560.54 709.433C1560.54 709.664 1560.34 709.852 1560.1 709.852Z" fill="#FFB30B"/>
<path d="M1560.1 712.199H1537.5C1537.26 712.199 1537.06 712.011 1537.06 711.78C1537.06 711.549 1537.26 711.361 1537.5 711.361H1560.1C1560.34 711.361 1560.54 711.549 1560.54 711.78C1560.54 712.011 1560.34 712.199 1560.1 712.199Z" fill="#FFB30B"/>
<path d="M1560.1 714.546H1537.5C1537.26 714.546 1537.06 714.359 1537.06 714.127C1537.06 713.896 1537.26 713.708 1537.5 713.708H1560.1C1560.34 713.708 1560.54 713.896 1560.54 714.127C1560.54 714.359 1560.34 714.546 1560.1 714.546Z" fill="#FFB30B"/>
<path d="M1560.1 716.893H1537.5C1537.26 716.893 1537.06 716.705 1537.06 716.474C1537.06 716.243 1537.26 716.055 1537.5 716.055H1560.1C1560.34 716.055 1560.54 716.243 1560.54 716.474C1560.54 716.705 1560.34 716.893 1560.1 716.893Z" fill="#FFB30B"/>
<path d="M1544.69 719.242H1537.5C1537.26 719.242 1537.06 719.054 1537.06 718.823C1537.06 718.592 1537.26 718.404 1537.5 718.404H1544.69C1544.93 718.404 1545.13 718.592 1545.13 718.823C1545.13 719.054 1544.93 719.242 1544.69 719.242Z" fill="#FFB30B"/>
<path d="M265.692 453L296.092 452.996C296.469 452.996 296.776 452.703 296.776 452.34V444.144V432.296V423.454C296.776 421.546 297.937 420 300.046 420H268.82C266.71 420 265 421.546 265 423.454V432.296V444.146V452.342C265.002 452.705 265.31 453 265.692 453Z" fill="#FFEB88"/>
<path d="M292.101 430.811H269.502C269.259 430.811 269.061 430.624 269.061 430.392C269.061 430.161 269.259 429.973 269.502 429.973H292.101C292.344 429.973 292.542 430.161 292.542 430.392C292.542 430.624 292.344 430.811 292.101 430.811Z" fill="#FFB30B"/>
<path d="M288.498 428.016H273.106C272.863 428.016 272.666 427.828 272.666 427.596C272.666 427.365 272.863 427.177 273.106 427.177H288.498C288.741 427.177 288.939 427.365 288.939 427.596C288.939 427.828 288.741 428.016 288.498 428.016Z" fill="#FFB30B"/>
<path d="M292.101 433.158H269.502C269.259 433.158 269.061 432.971 269.061 432.739C269.061 432.508 269.259 432.32 269.502 432.32H292.101C292.344 432.32 292.542 432.508 292.542 432.739C292.542 432.971 292.344 433.158 292.101 433.158Z" fill="#FFB30B"/>
<path d="M292.101 435.505H269.502C269.259 435.505 269.061 435.318 269.061 435.086C269.061 434.855 269.259 434.667 269.502 434.667H292.101C292.344 434.667 292.542 434.855 292.542 435.086C292.542 435.318 292.344 435.505 292.101 435.505Z" fill="#FFB30B"/>
<path d="M292.101 437.852H269.502C269.259 437.852 269.061 437.664 269.061 437.433C269.061 437.202 269.259 437.014 269.502 437.014H292.101C292.344 437.014 292.542 437.202 292.542 437.433C292.542 437.664 292.344 437.852 292.101 437.852Z" fill="#FFB30B"/>
<path d="M292.101 440.199H269.502C269.259 440.199 269.061 440.011 269.061 439.78C269.061 439.549 269.259 439.361 269.502 439.361H292.101C292.344 439.361 292.542 439.549 292.542 439.78C292.542 440.011 292.344 440.199 292.101 440.199Z" fill="#FFB30B"/>
<path d="M292.101 442.546H269.502C269.259 442.546 269.061 442.359 269.061 442.127C269.061 441.896 269.259 441.708 269.502 441.708H292.101C292.344 441.708 292.542 441.896 292.542 442.127C292.542 442.359 292.344 442.546 292.101 442.546Z" fill="#FFB30B"/>
<path d="M292.101 444.893H269.502C269.259 444.893 269.061 444.705 269.061 444.474C269.061 444.243 269.259 444.055 269.502 444.055H292.101C292.344 444.055 292.542 444.243 292.542 444.474C292.542 444.705 292.344 444.893 292.101 444.893Z" fill="#FFB30B"/>
<path d="M276.688 447.242H269.502C269.259 447.242 269.061 447.054 269.061 446.823C269.061 446.592 269.259 446.404 269.502 446.404H276.688C276.931 446.404 277.129 446.592 277.129 446.823C277.131 447.054 276.933 447.242 276.688 447.242Z" fill="#FFB30B"/>
<path d="M1624.69 1036L1655.09 1036C1655.47 1036 1655.78 1035.7 1655.78 1035.34V1027.14V1015.3V1006.45C1655.78 1004.55 1656.94 1003 1659.05 1003H1627.82C1625.71 1003 1624 1004.55 1624 1006.45V1015.3V1027.15V1035.34C1624 1035.71 1624.31 1036 1624.69 1036Z" fill="#FFEB88"/>
<path d="M1651.1 1013.81H1628.5C1628.26 1013.81 1628.06 1013.62 1628.06 1013.39C1628.06 1013.16 1628.26 1012.97 1628.5 1012.97H1651.1C1651.34 1012.97 1651.54 1013.16 1651.54 1013.39C1651.54 1013.62 1651.34 1013.81 1651.1 1013.81Z" fill="#FFB30B"/>
<path d="M1647.5 1011.02H1632.11C1631.86 1011.02 1631.67 1010.83 1631.67 1010.6C1631.67 1010.37 1631.86 1010.18 1632.11 1010.18H1647.5C1647.74 1010.18 1647.94 1010.37 1647.94 1010.6C1647.94 1010.83 1647.74 1011.02 1647.5 1011.02Z" fill="#FFB30B"/>
<path d="M1651.1 1016.16H1628.5C1628.26 1016.16 1628.06 1015.97 1628.06 1015.74C1628.06 1015.51 1628.26 1015.32 1628.5 1015.32H1651.1C1651.34 1015.32 1651.54 1015.51 1651.54 1015.74C1651.54 1015.97 1651.34 1016.16 1651.1 1016.16Z" fill="#FFB30B"/>
<path d="M1651.1 1018.51H1628.5C1628.26 1018.51 1628.06 1018.32 1628.06 1018.09C1628.06 1017.85 1628.26 1017.67 1628.5 1017.67H1651.1C1651.34 1017.67 1651.54 1017.85 1651.54 1018.09C1651.54 1018.32 1651.34 1018.51 1651.1 1018.51Z" fill="#FFB30B"/>
<path d="M1651.1 1020.85H1628.5C1628.26 1020.85 1628.06 1020.66 1628.06 1020.43C1628.06 1020.2 1628.26 1020.01 1628.5 1020.01H1651.1C1651.34 1020.01 1651.54 1020.2 1651.54 1020.43C1651.54 1020.66 1651.34 1020.85 1651.1 1020.85Z" fill="#FFB30B"/>
<path d="M1651.1 1023.2H1628.5C1628.26 1023.2 1628.06 1023.01 1628.06 1022.78C1628.06 1022.55 1628.26 1022.36 1628.5 1022.36H1651.1C1651.34 1022.36 1651.54 1022.55 1651.54 1022.78C1651.54 1023.01 1651.34 1023.2 1651.1 1023.2Z" fill="#FFB30B"/>
<path d="M1651.1 1025.55H1628.5C1628.26 1025.55 1628.06 1025.36 1628.06 1025.13C1628.06 1024.9 1628.26 1024.71 1628.5 1024.71H1651.1C1651.34 1024.71 1651.54 1024.9 1651.54 1025.13C1651.54 1025.36 1651.34 1025.55 1651.1 1025.55Z" fill="#FFB30B"/>
<path d="M1651.1 1027.89H1628.5C1628.26 1027.89 1628.06 1027.71 1628.06 1027.47C1628.06 1027.24 1628.26 1027.05 1628.5 1027.05H1651.1C1651.34 1027.05 1651.54 1027.24 1651.54 1027.47C1651.54 1027.71 1651.34 1027.89 1651.1 1027.89Z" fill="#FFB30B"/>
<path d="M1635.69 1030.24H1628.5C1628.26 1030.24 1628.06 1030.05 1628.06 1029.82C1628.06 1029.59 1628.26 1029.4 1628.5 1029.4H1635.69C1635.93 1029.4 1636.13 1029.59 1636.13 1029.82C1636.13 1030.05 1635.93 1030.24 1635.69 1030.24Z" fill="#FFB30B"/>
<circle cx="52.8899" cy="1009.25" r="8.8141" transform="rotate(-15.1908 52.8899 1009.25)" fill="#BB6402" fill-opacity="0.19"/>
<circle cx="383.816" cy="889.816" r="8.8141" transform="rotate(-15.1908 383.816 889.816)" fill="#BB6402" fill-opacity="0.19"/>
<circle cx="1770.82" cy="348.816" r="8.8141" transform="rotate(-15.1908 1770.82 348.816)" fill="#BB6402" fill-opacity="0.19"/>
<circle cx="216.816" cy="716.816" r="8.8141" transform="rotate(-15.1908 216.816 716.816)" fill="#BB6402" fill-opacity="0.19"/>
<circle cx="101.816" cy="517.816" r="8.8141" transform="rotate(-15.1908 101.816 517.816)" fill="#BB6402" fill-opacity="0.19"/>
<circle cx="1800.82" cy="737.816" r="8.8141" transform="rotate(-15.1908 1800.82 737.816)" fill="#BB6402" fill-opacity="0.19"/>
<circle cx="1348.82" cy="495.816" r="8.8141" transform="rotate(-15.1908 1348.82 495.816)" fill="#BB6402" fill-opacity="0.19"/>
</svg>
