<svg width="63" height="15" viewBox="0 0 63 15" fill="none" xmlns="http://www.w3.org/2000/svg">
<path d="M8.88575 10.454C8.88575 5.882 2.26175 7.646 2.26175 4.82C2.26175 3.614 3.17975 3.038 4.36775 3.074C5.66375 3.11 6.40175 3.884 6.47375 4.73H8.74175C8.56175 2.588 6.86975 1.328 4.47575 1.328C1.91975 1.328 0.17375 2.696 0.17375 4.892C0.17375 9.5 6.81575 7.538 6.81575 10.562C6.81575 11.624 6.00575 12.398 4.56575 12.398C3.14375 12.398 2.42375 11.57 2.33375 10.544H0.13775C0.13775 12.758 2.06375 14.126 4.56575 14.126C7.35575 14.126 8.88575 12.326 8.88575 10.454ZM15.733 5.648C17.263 5.648 18.469 6.62 18.505 8.15H13.015C13.231 6.584 14.347 5.648 15.733 5.648ZM20.377 11.048H18.163C17.785 11.822 17.083 12.434 15.823 12.434C14.311 12.434 13.141 11.444 12.997 9.806H20.575C20.629 9.464 20.647 9.14 20.647 8.798C20.647 5.882 18.649 3.92 15.823 3.92C12.889 3.92 10.873 5.918 10.873 9.032C10.873 12.146 12.979 14.162 15.823 14.162C18.253 14.162 19.819 12.776 20.377 11.048ZM22.2324 8.996C22.2324 12.056 24.3024 14.162 26.8764 14.162C28.5324 14.162 29.7204 13.37 30.3504 12.524V14H32.4204V4.082H30.3504V5.522C29.7384 4.712 28.5864 3.92 26.9124 3.92C24.3024 3.92 22.2324 5.936 22.2324 8.996ZM30.3504 9.032C30.3504 11.174 28.8924 12.38 27.3444 12.38C25.8144 12.38 24.3384 11.138 24.3384 8.996C24.3384 6.854 25.8144 5.702 27.3444 5.702C28.8924 5.702 30.3504 6.908 30.3504 9.032ZM37.4176 8.78C37.4176 6.674 38.3536 6.044 39.8656 6.044H40.3876V3.92C38.9836 3.92 37.9936 4.532 37.4176 5.522V4.082H35.3656V14H37.4176V8.78ZM41.8398 9.032C41.8398 12.146 43.8558 14.162 46.6998 14.162C49.1298 14.162 50.7138 12.812 51.2718 10.868H49.0578C48.6798 11.894 47.9238 12.434 46.6998 12.434C45.0438 12.434 43.9458 11.21 43.9458 9.032C43.9458 6.872 45.0438 5.648 46.6998 5.648C47.9238 5.648 48.7158 6.26 49.0578 7.214H51.2718C50.7138 5.126 49.1298 3.92 46.6998 3.92C43.8558 3.92 41.8398 5.936 41.8398 9.032ZM53.5668 14H55.6188V8.456C55.6188 6.638 56.6088 5.702 58.1208 5.702C59.6148 5.702 60.6048 6.638 60.6048 8.456V14H62.6388V8.15C62.6388 5.378 60.9108 3.92 58.6968 3.92C57.4188 3.92 56.3028 4.406 55.6188 5.234V0.68H53.5668V14Z" fill="#8D8C8C"/>
</svg>
