<svg width="32" height="28" viewBox="0 0 32 28" fill="none" xmlns="http://www.w3.org/2000/svg">
<path d="M13.6847 23.8267C16.721 23.8262 19.6697 22.9691 22.0615 21.3918L29.5812 27.7331L32 25.6934L24.4802 19.352C26.3516 17.3349 27.3687 14.8477 27.3694 12.2865C27.3694 5.92356 21.2301 0.746338 13.6847 0.746338C6.13931 0.746338 0 5.92356 0 12.2865C0 18.6495 6.13931 23.8267 13.6847 23.8267ZM13.6847 3.63139C19.3451 3.63139 23.9483 7.51322 23.9483 12.2865C23.9483 17.0599 19.3451 20.9417 13.6847 20.9417C8.02438 20.9417 3.42118 17.0599 3.42118 12.2865C3.42118 7.51322 8.02438 3.63139 13.6847 3.63139Z" fill="#FFB703"/>
<path d="M16.4503 10.4462C17.1166 11.0124 17.484 11.7603 17.484 12.553H21C21.0015 11.7699 20.8199 10.9943 20.4657 10.2711C20.1114 9.54781 19.5916 8.89124 18.9361 8.33931C16.2745 6.08644 11.6598 6.08644 9 8.33931L11.4823 10.4491C12.8183 9.31973 15.1213 9.32271 16.4503 10.4462Z" fill="#FFE66D"/>
</svg>
